<mxfile host="Electron" agent="Mozilla/5.0 (Windows NT 10.0; Win64; x64) AppleWebKit/537.36 (KHTML, like Gecko) draw.io/26.1.1 Chrome/132.0.6834.210 Electron/34.3.3 Safari/537.36" version="26.1.1">
  <diagram name="PÃ¡gina-1" id="Yi0tFVA1XR9o1bBozKhX">
    <mxGraphModel dx="1434" dy="836" grid="1" gridSize="10" guides="1" tooltips="1" connect="1" arrows="1" fold="1" page="1" pageScale="1" pageWidth="827" pageHeight="1169" math="0" shadow="0">
      <root>
        <mxCell id="0" />
        <mxCell id="1" parent="0" />
        <mxCell id="Mq6UHEIAAEUxw3qCTtpE-1" value="&lt;font face=&quot;Verdana&quot;&gt;Beginning&lt;/font&gt;" style="ellipse;whiteSpace=wrap;html=1;aspect=fixed;fillColor=#dae8fc;strokeColor=#6c8ebf;" parent="1" vertex="1">
          <mxGeometry x="190" y="100" width="80" height="80" as="geometry" />
        </mxCell>
        <mxCell id="Mq6UHEIAAEUxw3qCTtpE-2" value="&lt;font face=&quot;Helvetica&quot; style=&quot;font-size: 18px;&quot;&gt;&lt;i style=&quot;&quot;&gt;&lt;b style=&quot;&quot;&gt;A&lt;/b&gt;&lt;/i&gt;&lt;/font&gt;" style="text;html=1;align=center;verticalAlign=middle;whiteSpace=wrap;rounded=0;" parent="1" vertex="1">
          <mxGeometry x="170" y="80" width="60" height="30" as="geometry" />
        </mxCell>
        <mxCell id="Mq6UHEIAAEUxw3qCTtpE-3" value="Receive Client&#39;s HTTP request&lt;div&gt;by the endpoint &lt;u&gt;/v1/chimera-parameter-server/predict&lt;/u&gt;&lt;/div&gt;" style="rounded=0;whiteSpace=wrap;html=1;fillColor=#dae8fc;strokeColor=#6c8ebf;" parent="1" vertex="1">
          <mxGeometry x="380" y="100" width="210" height="80" as="geometry" />
        </mxCell>
        <mxCell id="Mq6UHEIAAEUxw3qCTtpE-4" value="The model returns the predictions as JSON-formatted response through the endpoint&amp;nbsp;&lt;u&gt;/v1/chimera-parameter-server/predict&lt;/u&gt;" style="rounded=0;whiteSpace=wrap;html=1;fillColor=#dae8fc;strokeColor=#6c8ebf;" parent="1" vertex="1">
          <mxGeometry x="650" y="282.5" width="210" height="80" as="geometry" />
        </mxCell>
        <mxCell id="Mq6UHEIAAEUxw3qCTtpE-5" value="" style="endArrow=classic;html=1;rounded=0;exitX=1;exitY=0.5;exitDx=0;exitDy=0;entryX=0;entryY=0.5;entryDx=0;entryDy=0;" parent="1" source="Mq6UHEIAAEUxw3qCTtpE-1" target="Mq6UHEIAAEUxw3qCTtpE-3" edge="1">
          <mxGeometry width="50" height="50" relative="1" as="geometry">
            <mxPoint x="470" y="360" as="sourcePoint" />
            <mxPoint x="520" y="310" as="targetPoint" />
          </mxGeometry>
        </mxCell>
        <mxCell id="Mq6UHEIAAEUxw3qCTtpE-6" value="&lt;font face=&quot;Helvetica&quot; style=&quot;font-size: 18px;&quot;&gt;&lt;i style=&quot;&quot;&gt;&lt;b style=&quot;&quot;&gt;B&lt;/b&gt;&lt;/i&gt;&lt;/font&gt;" style="text;html=1;align=center;verticalAlign=middle;whiteSpace=wrap;rounded=0;" parent="1" vertex="1">
          <mxGeometry x="340" y="80" width="60" height="30" as="geometry" />
        </mxCell>
        <mxCell id="Mq6UHEIAAEUxw3qCTtpE-7" value="" style="endArrow=classic;html=1;rounded=0;exitX=0.5;exitY=1;exitDx=0;exitDy=0;entryX=0.5;entryY=0;entryDx=0;entryDy=0;" parent="1" source="Mq6UHEIAAEUxw3qCTtpE-3" target="uDziFADze55r5njM2c1v-4" edge="1">
          <mxGeometry width="50" height="50" relative="1" as="geometry">
            <mxPoint x="485" y="200" as="sourcePoint" />
            <mxPoint x="485" y="280" as="targetPoint" />
          </mxGeometry>
        </mxCell>
        <mxCell id="Mq6UHEIAAEUxw3qCTtpE-10" value="" style="endArrow=classic;html=1;rounded=0;exitX=0.5;exitY=1;exitDx=0;exitDy=0;entryX=0.5;entryY=0;entryDx=0;entryDy=0;" parent="1" source="Mq6UHEIAAEUxw3qCTtpE-4" edge="1" target="Mq6UHEIAAEUxw3qCTtpE-19">
          <mxGeometry width="50" height="50" relative="1" as="geometry">
            <mxPoint x="206.25" y="510" as="sourcePoint" />
            <mxPoint x="735" y="560" as="targetPoint" />
            <Array as="points">
              <mxPoint x="755" y="545" />
            </Array>
          </mxGeometry>
        </mxCell>
        <mxCell id="Mq6UHEIAAEUxw3qCTtpE-19" value="&lt;font face=&quot;Verdana&quot;&gt;End&lt;/font&gt;" style="ellipse;whiteSpace=wrap;html=1;aspect=fixed;fillColor=#dae8fc;strokeColor=#6c8ebf;direction=south;" parent="1" vertex="1">
          <mxGeometry x="445" y="505" width="80" height="80" as="geometry" />
        </mxCell>
        <mxCell id="Mq6UHEIAAEUxw3qCTtpE-25" value="&lt;font face=&quot;Helvetica&quot; style=&quot;font-size: 18px;&quot;&gt;&lt;i style=&quot;&quot;&gt;&lt;b style=&quot;&quot;&gt;C&lt;/b&gt;&lt;/i&gt;&lt;/font&gt;" style="text;html=1;align=center;verticalAlign=middle;whiteSpace=wrap;rounded=0;" parent="1" vertex="1">
          <mxGeometry x="385" y="252.5" width="60" height="30" as="geometry" />
        </mxCell>
        <mxCell id="Mq6UHEIAAEUxw3qCTtpE-26" value="&lt;font face=&quot;Helvetica&quot; style=&quot;font-size: 18px;&quot;&gt;&lt;i style=&quot;&quot;&gt;&lt;b style=&quot;&quot;&gt;D&lt;/b&gt;&lt;/i&gt;&lt;/font&gt;" style="text;html=1;align=center;verticalAlign=middle;whiteSpace=wrap;rounded=0;" parent="1" vertex="1">
          <mxGeometry x="620" y="250" width="60" height="30" as="geometry" />
        </mxCell>
        <mxCell id="uDziFADze55r5njM2c1v-6" value="" style="edgeStyle=orthogonalEdgeStyle;rounded=0;orthogonalLoop=1;jettySize=auto;html=1;" edge="1" parent="1" source="uDziFADze55r5njM2c1v-4" target="Mq6UHEIAAEUxw3qCTtpE-4">
          <mxGeometry relative="1" as="geometry" />
        </mxCell>
        <mxCell id="uDziFADze55r5njM2c1v-9" value="Yes" style="edgeLabel;html=1;align=center;verticalAlign=middle;resizable=0;points=[];" vertex="1" connectable="0" parent="uDziFADze55r5njM2c1v-6">
          <mxGeometry x="-0.0143" y="-1" relative="1" as="geometry">
            <mxPoint y="-13" as="offset" />
          </mxGeometry>
        </mxCell>
        <mxCell id="uDziFADze55r5njM2c1v-8" value="" style="edgeStyle=orthogonalEdgeStyle;rounded=0;orthogonalLoop=1;jettySize=auto;html=1;" edge="1" parent="1" source="uDziFADze55r5njM2c1v-4" target="uDziFADze55r5njM2c1v-7">
          <mxGeometry relative="1" as="geometry" />
        </mxCell>
        <mxCell id="uDziFADze55r5njM2c1v-10" value="No" style="edgeLabel;html=1;align=center;verticalAlign=middle;resizable=0;points=[];" vertex="1" connectable="0" parent="uDziFADze55r5njM2c1v-8">
          <mxGeometry x="-0.3946" y="2" relative="1" as="geometry">
            <mxPoint x="-7" y="-14" as="offset" />
          </mxGeometry>
        </mxCell>
        <mxCell id="uDziFADze55r5njM2c1v-4" value="Is the model in the Master fitted?" style="rhombus;whiteSpace=wrap;html=1;fillColor=#dae8fc;strokeColor=#6c8ebf;" vertex="1" parent="1">
          <mxGeometry x="383.06" y="250" width="201.87" height="145" as="geometry" />
        </mxCell>
        <mxCell id="uDziFADze55r5njM2c1v-7" value="Return error message as JSON-formatted response through the endpoint&amp;nbsp;&lt;u&gt;/v1/chimera-parameter-server/predict&lt;/u&gt;" style="rounded=0;whiteSpace=wrap;html=1;fillColor=#dae8fc;strokeColor=#6c8ebf;" vertex="1" parent="1">
          <mxGeometry x="110" y="282.5" width="210" height="80" as="geometry" />
        </mxCell>
        <mxCell id="uDziFADze55r5njM2c1v-11" value="" style="endArrow=classic;html=1;rounded=0;exitX=0.5;exitY=1;exitDx=0;exitDy=0;entryX=0.5;entryY=1;entryDx=0;entryDy=0;" edge="1" parent="1" source="uDziFADze55r5njM2c1v-7" target="Mq6UHEIAAEUxw3qCTtpE-19">
          <mxGeometry width="50" height="50" relative="1" as="geometry">
            <mxPoint x="390" y="350" as="sourcePoint" />
            <mxPoint x="210" y="560" as="targetPoint" />
            <Array as="points">
              <mxPoint x="215" y="545" />
            </Array>
          </mxGeometry>
        </mxCell>
        <mxCell id="uDziFADze55r5njM2c1v-12" value="&lt;font face=&quot;Helvetica&quot; style=&quot;font-size: 18px;&quot;&gt;&lt;i style=&quot;&quot;&gt;&lt;b style=&quot;&quot;&gt;E&lt;/b&gt;&lt;/i&gt;&lt;/font&gt;" style="text;html=1;align=center;verticalAlign=middle;whiteSpace=wrap;rounded=0;" vertex="1" parent="1">
          <mxGeometry x="70" y="250" width="60" height="30" as="geometry" />
        </mxCell>
        <mxCell id="uDziFADze55r5njM2c1v-13" value="&lt;font face=&quot;Helvetica&quot; style=&quot;font-size: 18px;&quot;&gt;&lt;i style=&quot;&quot;&gt;&lt;b style=&quot;&quot;&gt;F&lt;/b&gt;&lt;/i&gt;&lt;/font&gt;" style="text;html=1;align=center;verticalAlign=middle;whiteSpace=wrap;rounded=0;" vertex="1" parent="1">
          <mxGeometry x="414" y="490" width="60" height="30" as="geometry" />
        </mxCell>
      </root>
    </mxGraphModel>
  </diagram>
</mxfile>
